# xmcd
#
# Track frame offsets:
#	225
#	16209
#	32080
#	49498
#	65043
#	80986
#	98157
#	116070
#	133349
#	148943
#	164847
#	185232
#
# Disc length: 3069 seconds
#
# Revision: 0
# Processed by: cddbd v1.5.2PL0 Copyright (c) Steve Scherf et al.
# Submitted via: audiograbber 1.83.01
#
DISCID=c50bfa0c
DTITLE=Casey Donahew Band - Moving on
DYEAR=2009
DGENRE=Country
TTITLE0=Ramblin Kind
TTITLE1=Next Time
TTITLE2=Breaks my heart
TTITLE3=California
TTITLE4=Nowhere Fast
TTITLE5=Let me love you
TTITLE6=Burn this house down
TTITLE7=Break me down
TTITLE8=Strong enough
TTITLE9=Broken
TTITLE10=Angel
TTITLE11=Moving on
EXTD=
EXTT0=
EXTT1=
EXTT2=
EXTT3=
EXTT4=
EXTT5=
EXTT6=
EXTT7=
EXTT8=
EXTT9=
EXTT10=
EXTT11=
PLAYORDER=
